<?xml version="1.0" encoding="UTF-8"?><svg xmlns="http://www.w3.org/2000/svg" viewBox="0 0 122 122"><defs><style>.cls-1{fill:#eae1da;}.cls-2{fill:#a08572;}.cls-3{fill:#bb9b84;}</style></defs><g id="Layer_5"><circle class="cls-1" cx="61" cy="61" r="61"/></g><g id="Layer_24"><path class="cls-2" d="m41.09,80.27s1.99,1.94,2.72,2.47c.94.67,2.93,1.81,3.99,2.19,1.89.67,5.81,1.53,7.78,1.74,1.99.21,5.98.43,7.97.28,2.06-.16,6.18-.69,8.17-1.35,1.4-.47,4.12-1.76,5.4-2.58.77-.49,2.26-1.58,2.92-2.24.57-.58,2.04-2.58,2.04-2.58l-40.98,2.08Z"/><g id="Layer_22"><path class="cls-3" d="m58.07,35.09c-2.01.1-6.02.52-8,.9-2.63.51-7.9,1.59-10.4,2.64-2.29.95-6.83,3.22-8.72,5-1.32,1.23-3.72,4.17-4.39,5.97-.42,1.12-1.07,3.57-1.05,4.79.03,1.98.7,5.95,1.24,7.84.56,1.98,1.73,6,2.77,7.7,1.14,1.87,4.12,4.97,5.71,6.31,1.66,1.4,5.05,4.22,6.98,5.07,4.01,1.75,12.55,3.65,16.84,3.68,3.57.02,10.74-.88,14.19-1.94,2.42-.74,7.17-2.72,9.38-4.09,1.72-1.07,5.07-3.51,6.49-5.07,1.37-1.49,3.92-4.79,4.75-6.73.75-1.76,1.6-5.62,1.86-7.56.25-1.82.92-5.9.77-7.74-.1-1.24-.57-3.54-1.14-4.6-.93-1.7-3.63-4.46-5.16-5.43-2.35-1.49-7.44-3.57-10.04-4.3-2.8-.79-8.49-1.99-11.37-2.29-2.67-.28-8.03-.27-10.7-.14Z"/><g id="Layer_23"><path class="cls-2" d="m60.05,36.06c-2.09.07-8.08.68-10.13,1.11-2.41.51-6.49,1.31-8.4,2.04-2.06.79-5.78,2.47-7.51,3.72-1.49,1.07-4.12,3.85-5.23,5.41-.65.92-1.61,3.12-1.74,4.3-.14,1.25.59,3.65,1.24,4.82.79,1.41,3.6,3.98,4.83,4.89,1.83,1.36,6.02,3.01,8.1,3.73,2.89,1,8.67,2.01,11.77,2.27s10.26,0,13.49-.43c2.53-.34,7.34-1.45,9.82-2.17,2.24-.65,6.66-2.28,8.78-3.33,1.74-.86,5.03-3.12,6.43-4.58,1-1.03,2.51-3.72,2.89-5.2.29-1.14,0-3.66-.48-4.72-.81-1.79-3.93-4.06-5.41-5.13-1.73-1.25-5.58-2.94-7.52-3.68-2.26-.86-6.83-1.88-9.3-2.29-2.76-.46-8.84-.85-11.62-.76Z"/></g></g></g></svg>