<?xml version="1.0" encoding="UTF-8"?><svg xmlns="http://www.w3.org/2000/svg" viewBox="0 0 122 122"><defs><style>.cls-1{fill:#eae1da;}.cls-2{fill:#a08572;}.cls-3{fill:#bb9b84;}.cls-4{fill:none;stroke:#a08572;stroke-miterlimit:10;stroke-width:.5px;}</style></defs><g id="Layer_6"><circle class="cls-1" cx="61" cy="61" r="61"/></g><g id="Layer_26"><path class="cls-3" d="m29.49,45.5c0,.46-1.22.72-1.43,1.12-.33.6-.33,2.06-.25,2.74.06.47.34,1.39.37,1.87.09,1.29-.38,3.88-.44,5.17-.06,1.5.08,4.5.31,5.98.31,1.98.97,5.98,1.81,7.79.9,1.95,3.4,5.53,4.92,7.04,1.81,1.8,5.7,5.27,8.04,6.3,3.67,1.61,11.7,3.37,15.71,3.24,2.75-.09,8.22-1.18,10.78-2.18s6.34-2.29,8.79-4.24c.41-.32,2.49-1.56,2.49-1.56l5.05-7.67.37-.56s1.46-4.08,1.75-5.49c.42-2.02,1.09-6.18.81-8.23-.21-1.49-1.24-4.87-1.99-6.17-1.24-2.13-3.93-6.32-5.73-7.85-1.91-1.63-6.31-4.14-8.67-4.99-2.56-.92-7.89-2.25-10.6-2.49-2.05-.18-6.19-.15-8.23.12-1.9.25-5.66,1.03-7.48,1.62-1.65.54-4.79,2.04-6.42,2.62-.88.31-2.73.68-3.62,1-.68.25-2.02.84-2.62,1.25-.64.43-2.14,1.26-2.37,1.99"/><path class="cls-3" d="m85.37,70.61s1.81.51,2.26.71c.82.36,2.18,1.19,2.81,1.68s1.92,1.59,2.4,2.22,1.19,1.89,1.33,2.61c.11.53.14,1.65-.02,2.16-.14.45-.61,1.32-.97,1.63-.44.39-1.51.97-2.09,1.1-.61.14-1.87.25-2.49.13-.85-.16-2.45-.83-3.21-1.25-.55-.31-1.58-1.04-2.11-1.38-.38-.25-1.12-.78-1.54-.97s-1.7-.23-2.01-.57c-.22-.24.02-1.29.02-1.29l3.68-3.63.43.96s.4,1.05.61,1.36c.25.37.89,1.02,1.25,1.29.51.38,1.6,1.02,2.16,1.29.4.19,1.2.64,1.64.68.2.02.67.04.78-.13.14-.22-.05-.81-.18-1.04-.19-.33-.65-.95-.93-1.21-.29-.28-.94-.79-1.29-1.01-.3-.18-.82-.47-1.13-.63-.34-.17-1.15-.44-1.52-.53-.48-.12-1.91-.18-1.91-.18l-1-1.18,1.86-2.3,1.16-.53Z"/><g id="Layer_27"><path class="cls-2" d="m34.97,42.71c-1.41,1.04-4.42,3.09-5.28,4.61-.19.33-.34,1.14-.27,1.51.04.24.34.64.4.88.24.93-.02,2.88-.07,3.84-.08,1.56-.24,4.72.03,6.26.19,1.07.92,3.13,1.38,4.11.61,1.29,2.06,3.68,3,4.76,1.39,1.58,4.61,4.35,6.44,5.38s5.96,2.76,8.09,3.22c2.78.59,8.47,1.08,11.31.97,2.39-.09,7.94-.74,10.24-1.39s6.33-2.43,8.06-3.69,4.54-4.21,5.6-5.89c.83-1.32,2.12-4.04,2.41-5.51s.53-4.65.17-6.14c-.48-1.98-2.05-5.95-3.27-7.58s-4.08-4.58-5.71-5.68c-1.82-1.23-5.74-3.35-7.79-4.07-1.87-.65-5.71-1.59-7.67-1.78-1.57-.16-4.74-.11-6.31-.04-1.2.05-3.6.13-4.78.32-.97.16-2.87.66-3.8.99-.66.24-1.93.82-2.57,1.1-.71.31-2.12.94-2.85,1.21-.61.23-1.85.65-2.49.8-.51.12-1.57.16-2.06.34-.62.24-1.69,1.08-2.22,1.47Z"/><g id="Layer_28"><path class="cls-3" d="m41.95,62.27c.3-1.51,1.79-3.64,2.6-4.94.73-1.17,2.27-4.11,3.05-5.25.72-1.05,2.44-3.12,3.45-3.96.81-.67,2.17-1.63,3.09-2.08.54-.26,2.17-.82,2.76-.86.76-.05,2.29.19,3.02.44,1.08.37,3.51,1.23,4.38,1.98.95.83,2.55,2.76,3.19,3.85s1.95,3.33,2.66,4.47c.51.83,1.67,2.32,2.16,3.16.32.56.58,2.06.61,2.71s-.17,2.04-.47,2.64c-.57,1.18-1.76,3.74-2.7,4.66s-3.03,2.64-4.24,3.12c-2.21.88-7.6,1.46-9.98,1.46-2.15,0-6.79-1.84-8.54-2.97-1.47-.95-3.68-2.72-4.31-4.33-.26-.66-.87-3.4-.73-4.1Z"/><g id="Layer_29"><path class="cls-4" d="m57.43,46.03s-2.4.29-3.15.56c-.54.2-1.61.94-2.06,1.31-.8.65-2.23,1.97-2.86,2.79-.49.63-1.72,2.69-1.72,2.69,0,0-1.35,2.52-1.81,3.35-.35.62-1.44,2.44-1.44,2.44l-2.44,3.69"/><path class="cls-4" d="m41.95,65.61s3.36-5.02,3.83-5.89c.42-.79,2.01-3.69,2.42-4.48.45-.86,1.34-2.6,1.85-3.43.42-.68,1.4-1.95,1.95-2.53.47-.49,1.55-1.31,2.09-1.73.27-.22.84-.63,1.16-.77.51-.22,2.17-.54,2.17-.54"/><path class="cls-4" d="m57.43,46.03s-1.77,1.97-2.28,2.69-1.43,2.36-1.87,3.16c-.31.55-.95,1.65-1.23,2.22-.29.61-.75,1.37-1,1.99-.22.54-.76,2.13-.93,2.71s-.34,1.92-.43,2.35c-.13.6-.41,2.42-.48,2.77-.16.93-.59,1.65-.73,2.32-.12.55-.92,2.63-1.13,3.14-.17.42-1.84,2.09-1.84,2.09"/><polyline class="cls-4" points="57.91 46.34 57.52 48.64 57.34 52.19 57.52 54.42 57.68 57.86 57.8 62.1 57.59 65.16 57.33 67.88 56.18 74.52"/><path class="cls-4" d="m50.19,73.15s1.58-3.24,1.94-4.38c.42-1.34.89-4.58.92-5.53.03-1.22.05-3.66.16-4.87.09-.94.42-2.81.68-3.72.2-.71.83-2.11,1.04-2.75s.92-1.89,1.15-2.49c.32-.85,1.63-3.23,1.63-3.23"/><path class="cls-4" d="m42.86,68.77s3.36-4.42,3.74-5.42c.31-.81,2.29-5.49,2.58-6.31s.95-2.56,1.35-3.37c.43-.87,1.5-2.5,2.07-3.29s1.81-2.17,2.49-2.82c.39-.38,1.68-1.38,1.68-1.38"/><path class="cls-4" d="m63.93,74.19s-.42-6.8-.59-7.89c-.23-1.54-1.11-4.54-1.54-6.04s-1.37-4.44-1.8-5.92c-.31-1.06-.91-3.19-1.17-4.26-.22-.94-.77-3.77-.77-3.77"/><polyline class="cls-4" points="69.8 70.69 67.48 64.61 65.34 58.44 63.41 54.46 61.29 50.93 59.28 47.62 58.06 46.3"/><path class="cls-4" d="m72.67,66.75s-2.02-3.13-2.59-4.23c-.67-1.28-1.76-3.97-2.46-5.24-.62-1.11-2.07-3.2-2.83-4.23-.45-.62-1.93-2.39-1.93-2.39,0,0-1.42-1.58-1.87-2.04-.57-.59-2.45-2.19-2.45-2.19"/><path class="cls-4" d="m73.54,63.92s-2.47-3.14-3.03-4.07c-.67-1.1-1.77-3.3-2.39-4.43s-2.07-2.89-2.89-3.84c-.59-.69-1.71-2.15-2.45-2.68s-3.1-2.02-3.1-2.02l-1.02-.29"/><path class="cls-4" d="m57.91,46.03s2.43.29,3.07.56c1.15.5,3.24,1.81,4.17,2.66.85.78,2.27,3.41,2.96,4.35.55.75,1.47,2.6,1.99,3.37.47.69,1.95,2.67,1.95,2.67l2.05,2"/><path class="cls-2" d="m55.6,46.03s.98-.2,1.17-.24c.06-.01.81-.01.89-.02.05,0,.25-.02.36.03.03.01.74.13.74.13l.89.66-2.14-.06"/></g></g></g></g></svg>