<?xml version="1.0" encoding="UTF-8"?><svg xmlns="http://www.w3.org/2000/svg" viewBox="0 0 122 122"><defs><style>.cls-1{fill:#eae1da;}.cls-2{fill:#a08572;}.cls-3{fill:#bb9b84;}</style></defs><g id="Layer_3"><circle class="cls-1" cx="61" cy="61" r="61"/></g><g id="Layer_13"><g id="Layer_10"><path class="cls-3" d="m41.55,47.68l-.45.51s-3.5.84-4.64,1.24c-1.4.49-4.16,1.62-5.43,2.39-1.4.86-3.54,2.36-4.7,3.52s-2.2,3.29-2.41,4.49c-.13.71-.05,2.5.08,3.15.16.76.72,2.31,1.15,2.98s1.42,1.84,2,2.34,1.86,1.45,2.56,1.8c.74.37,2.3.92,3.09,1.15s2.49.68,3.34.81,2.75.14,3.65.26c.52.07,2.06.45,2.06.45l-.17-5.9s-1.17.54-1.58.65c-.51.13-1.57.28-2.1.25-.67-.04-2.22-.34-2.87-.51-.72-.19-1.98-.54-2.61-.79s-1.88-.77-2.42-1.17c-.44-.33-1.21-1.14-1.53-1.59-.22-.29-.78-1.27-.76-1.74s.52-1.53.82-1.96c.26-.37,1.36-1.67,1.93-2.1.48-.36,1.89-1.35,2.6-1.66.58-.26,1.99-.76,2.67-.96.65-.19,1.96-.75,2.61-.92s1.94-.44,2.6-.48c.27-.02,1.1.03,1.1.03l.73-1.38.22-2.08-.54-1.46"/><path class="cls-3" d="m41.68,47.42l.42,6.84-.11,3.62-.25,7.03-.35,2.48.44,5.86s.26,2.55.6,3.32c.29.66,1.26,1.79,1.75,2.32.53.57,1.53,1.79,2.17,2.25,1.43,1.02,4.66,2.54,6.34,3.04s5.29,1.14,7.08,1.32c1.34.14,4.04.38,5.38.3,1.76-.1,5.26-.58,6.96-1.04,1.38-.37,4.11-1.27,5.37-1.95,1.04-.56,2.96-1.93,3.85-2.7.49-.42,1.5-1.27,1.88-1.8.34-.48,1-2.11,1-2.11,0,0,.44-3.96.56-5.28.15-1.65.44-4.97.52-6.62.07-1.42.07-4.27.11-5.69.04-1.52.27-6.08.27-6.08l.15-3.15s-1.91,1.53-2.61,1.96c-.6.37-1.85.99-2.51,1.23-1.14.41-3.24,1.28-4.43,1.53-1.33.27-4.19.75-5.59.87-1.06.1-2.67.35-3.72.41-.79.05-2.73.09-3.64.04-1.48-.07-4.43-.35-5.9-.54-1.28-.17-3.83-.52-5.09-.79s-3.32-.75-4.46-1.24c-.87-.38-2.23-1.21-2.97-1.79-.41-.32-1.49-1.27-1.82-1.66-.38-.46-1.41-1.99-1.41-1.99Z"/><path class="cls-2" d="m41.48,47.75s.48,1.22.78,1.59c.92,1.12,3.54,2.91,4.86,3.51,2.11.97,6.32,1.86,8.6,2.22,1.78.28,6.67.58,8.48.61,2.04.03,4.87.05,6.89-.26s5.58-.89,7.47-1.62c1.08-.41,3.89-1.5,4.79-2.21.62-.48,2.48-2.06,2.48-2.06l.7-2.11-37.84-1.5-7.21,1.83Z"/><path class="cls-2" d="m42.01,53.8s-.93-.02-1.37,0c-.29.02-1.42.19-1.8.27-.78.16-2.12.6-2.81.83s-1.79.69-2.38.96c-.35.16-1.06.48-1.4.67s-1.01.62-1.31.88-1.15,1.18-1.15,1.18c0,0,2.06-1.42,2.79-1.83.54-.3,1.68-.83,2.26-1.06.7-.27,2.12-.74,2.84-.94.55-.15,1.66-.43,2.22-.55.53-.11,2.12-.4,2.12-.4Z"/><g id="Layer_11"><path class="cls-3" d="m64.13,36.19c-1.11-.01-3.33.04-4.44.13-1.51.12-4.52.49-6,.79-1.22.24-3.65.81-4.82,1.23-1.05.37-3.14,1.19-4.08,1.78-.77.49-2.26,1.6-2.79,2.34-.37.52-.92,1.69-1.03,2.32-.08.48-.14,1.5,0,1.97.19.61.9,1.73,1.34,2.19.64.66,2.09,1.82,2.89,2.27,1.07.6,3.33,1.58,4.51,1.94,1.65.51,5.03,1.36,6.74,1.58,1.61.21,4.86.3,6.48.31,1.72.01,5.16.09,6.87-.07,1.28-.12,3.82-.55,5.07-.84s3.86-.96,5.09-1.43c.9-.35,2.68-1.12,3.48-1.66.67-.44,1.95-1.44,2.44-2.07.39-.51,1.07-1.64,1.17-2.27.08-.5.19-1.54.03-2.02-.15-.46-.73-1.35-1.08-1.73-.54-.59-1.72-1.67-2.39-2.1-.75-.48-2.38-1.23-3.22-1.56-.95-.37-2.87-1.05-3.85-1.34s-3.07-.86-4.12-1.05c-.99-.18-2.99-.43-4-.51-1.08-.08-3.24-.19-4.32-.2Z"/><g id="Layer_12"><path class="cls-2" d="m63.91,36.87c-1.49.05-4.84.12-6.43.41-1.33.24-4.55.82-5.93,1.29-1.13.38-3.64,1.07-4.6,1.66-.9.56-2.69,1.72-3.17,2.51-.38.63-1.03,2.21-.88,2.98.13.67.95,2.19,1.49,2.7.73.69,2.47,1.67,3.38,2.05,1.24.52,3.75,1.59,5.06,1.89,1.71.4,5.43.81,7.19.91,1.45.08,4.22.14,5.63.09s4.19-.25,5.58-.38c1.22-.12,3.66-.41,4.84-.73s3.66-1.24,4.73-1.78c.81-.41,2.32-1.19,2.9-1.81.52-.55,1.43-1.85,1.52-2.6.08-.69-.23-2.14-.61-2.72-.43-.66-1.67-1.69-2.34-2.1-.93-.58-2.89-1.57-3.91-1.96-1.29-.48-3.94-1.28-5.29-1.55-1.17-.23-3.54-.5-4.73-.61-1.1-.11-3.38-.29-4.43-.25Z"/></g></g></g></g></svg>