<?xml version="1.0" encoding="UTF-8"?><svg id="Layer_2" xmlns="http://www.w3.org/2000/svg" viewBox="0 0 127.73 382.22"><defs><style>.cls-1{fill:#f3f0ec;}.cls-2{opacity:.9;}</style></defs><g class="cls-2"><path class="cls-1" d="m65.75,361.17c-.08-41.26-.26-82.53-.3-123.79-.04-41.06.05-82.12.51-123.18.26-23.15.63-46.31,1.16-69.45.06-2.41-3.69-2.41-3.75,0-.94,41.25-1.39,82.51-1.57,123.78-.18,41.06-.1,82.12.02,123.19.07,23.16.14,46.31.19,69.47,0,2.41,3.75,2.42,3.75,0h0Z"/></g><g class="cls-2"><path class="cls-1" d="m85.81,360.43c-.54-41.21-1.39-82.42-2.18-123.63-.79-41-1.51-82-1.81-123.01-.17-23.13-.2-46.26-.02-69.39.02-2.41-3.73-2.42-3.75,0-.3,41.21.03,82.43.64,123.64.6,41,1.47,82,2.24,123,.43,23.13.83,46.25,1.14,69.38.03,2.41,3.78,2.42,3.75,0h0Z"/></g><g class="cls-2"><path class="cls-1" d="m104.97,360.99c-1.42-41.24-3.39-82.45-5.37-123.66-1.98-41.21-3.97-82.43-5.44-123.66-.82-23.14-1.48-46.29-1.88-69.44-.04-2.41-3.79-2.42-3.75,0,.71,41.25,2.24,82.49,4.07,123.71,1.83,41.22,3.94,82.43,5.81,123.65,1.05,23.13,2.02,46.27,2.81,69.41.08,2.41,3.83,2.42,3.75,0h0Z"/></g><g class="cls-2"><path class="cls-1" d="m26.63,360.8c1.42-41.24,3.39-82.45,5.37-123.66s3.97-82.43,5.44-123.66c.82-23.14,1.48-46.29,1.88-69.44.04-2.41-3.71-2.41-3.75,0-.71,41.25-2.24,82.49-4.07,123.71-1.83,41.22-3.94,82.43-5.81,123.65-1.05,23.13-2.02,46.27-2.81,69.41-.08,2.41,3.67,2.41,3.75,0h0Z"/></g><g class="cls-2"><path class="cls-1" d="m46.21,360.97c.54-41.21,1.39-82.42,2.18-123.63.79-41,1.51-82,1.81-123.01.17-23.13.2-46.26.02-69.39-.02-2.41-3.77-2.42-3.75,0,.3,41.21-.03,82.43-.64,123.64-.6,41-1.47,82-2.24,123-.43,23.13-.83,46.25-1.14,69.38-.03,2.41,3.72,2.42,3.75,0h0Z"/></g><g class="cls-2"><path class="cls-1" d="m119.74,379.55c-.21-44.13-2.19-88.23-4.67-132.28s-5.43-87.62-7.58-131.45c-1.22-24.83-2.18-49.67-2.66-74.53-.05-2.41-3.8-2.42-3.75,0,.85,44.11,3.23,88.18,5.86,132.21,2.61,43.81,5.46,87.62,7.25,131.47,1.02,24.85,1.69,49.71,1.81,74.58.01,2.41,3.76,2.42,3.75,0h0Z"/></g><g class="cls-2"><path class="cls-1" d="m10.09,378.52c1.4-43.67,3.74-87.31,6.27-130.93,2.52-43.4,5.23-86.79,7.41-130.21,1.22-24.37,2.27-48.74,3.03-73.13.07-2.41-3.68-2.41-3.75,0-1.35,43.68-3.66,87.31-6.18,130.94-2.51,43.4-5.23,86.79-7.43,130.21-1.24,24.37-2.31,48.74-3.09,73.13-.08,2.41,3.67,2.41,3.75,0h0Z"/></g><g class="cls-2"><path class="cls-1" d="m25.26,41.87c-7.98-6.91-15.28-14.56-21.8-22.86-.63-.8-2-.66-2.65,0-.79.79-.63,1.85,0,2.65,6.52,8.3,13.82,15.95,21.8,22.86,1.82,1.57,4.48-1.07,2.65-2.65h0Z"/></g><g class="cls-2"><path class="cls-1" d="m104.27,42.52c7.98-6.91,15.28-14.56,21.8-22.86.63-.8.78-1.88,0-2.65-.65-.65-2.02-.8-2.65,0-6.52,8.3-13.82,15.95-21.8,22.86-1.83,1.58.83,4.22,2.65,2.65h0Z"/></g><g class="cls-2"><path class="cls-1" d="m3.75,19.86c.16-5.03.32-10.06.48-15.08.08-2.41-3.67-2.41-3.75,0C.32,9.81.16,14.83,0,19.86c-.08,2.41,3.67,2.41,3.75,0h0Z"/></g><g class="cls-2"><path class="cls-1" d="m126.86,17.86c.16-5.03.32-10.06.48-15.08.08-2.41-3.67-2.41-3.75,0-.16,5.03-.32,10.06-.48,15.08-.08,2.41,3.67,2.41,3.75,0h0Z"/></g><g class="cls-2"><path class="cls-1" d="m2.06,6.19c15.91,1.51,31.91,2.12,47.89,2.17,16.76.05,33.53-.52,50.23-1.87,8.75-.7,17.49-1.63,26.18-2.86,1-.14,1.56-1.42,1.31-2.31-.3-1.08-1.3-1.45-2.31-1.31-15.65,2.2-31.45,3.4-47.24,4.05-16.68.69-33.39.74-50.07.08-8.68-.35-17.35-.89-26-1.71-2.4-.23-2.39,3.52,0,3.75h0Z"/></g><g class="cls-2"><path class="cls-1" d="m9.19,380.29c28.21,1.22,56.43,1.84,84.67,1.92,7.97.02,15.94,0,23.91-.06,2.41-.02,2.42-3.77,0-3.75-28.23.22-56.47-.08-84.68-.97-7.97-.25-15.93-.55-23.89-.89-2.41-.1-2.41,3.65,0,3.75h0Z"/></g></svg>