<?xml version="1.0" encoding="UTF-8"?><svg id="Layer_37" xmlns="http://www.w3.org/2000/svg" viewBox="0 0 248.61 743.47"><defs><style>.cls-1,.cls-2{fill:none;stroke:#f3f0ec;stroke-miterlimit:10;stroke-width:6px;}.cls-2{stroke-linecap:round;}</style></defs><path class="cls-1" d="m5.74,7.02c34.42,3.71,73.13,6.04,115.42,5.61,45.99-.47,87.76-4.12,124.45-9.19v31.64l-44.91,45.93,6.63,155.15,4.59,90.84,7.66,124.53,4.59,77.07,3.06,71.96,1.53,61.75,2.04,78.09c-71.45-1.36-142.9-2.72-214.35-4.08.34-14.47.95-36.26,2.04-62.77,1.63-39.51,3.19-61.6,5.61-103.09,2.76-47.22,2.11-41.92,6.63-126.06,1.46-27.15,3.7-68.13,6.63-118.91l8.68-148.01,3.57-92.89c-8.09-7.35-16.5-15.5-25.05-24.52-7.88-8.32-15.02-16.48-21.49-24.34L5.74,7.02Z"/><line class="cls-2" x1="73.79" y1="83.52" x2="49.11" y2="702.4"/><line class="cls-2" x1="95.03" y1="85.45" x2="87.55" y2="702.4"/><line class="cls-2" x1="128.06" y1="85.45" x2="124.36" y2="702.4"/><line class="cls-2" x1="156.77" y1="85.45" x2="164.51" y2="700.87"/><line class="cls-2" x1="176.83" y1="85.45" x2="201.63" y2="702.4"/></svg>