<?xml version="1.0" encoding="UTF-8"?><svg xmlns="http://www.w3.org/2000/svg" viewBox="0 0 122 122"><defs><style>.cls-1{fill:#eae1da;}.cls-2{fill:#a08572;}.cls-3{fill:#bb9b84;}</style></defs><g id="Layer_7"><circle class="cls-1" cx="61" cy="61" r="61"/></g><g id="Layer_31"><path class="cls-3" d="m57.55,28.93s-.39,3.79-.48,5.05c-.11,1.57-.2,4.71-.29,6.28-.09,1.46-.13,3.61-.21,5.07-.06.99-.27,3.72-.36,4.7-.07.69-.15,2.12-.5,2.72-.66,1.11-2.9,2.57-3.92,3.37-1.34,1.06-4.02,3.22-5.06,4.58s-2.8,4.44-3.26,6.11c-.53,1.94-.79,5.99-.75,8,.04,2.18.34,6.54.66,8.7.2,1.35.82,4,1.11,5.33.21.95.79,3.82.79,3.82l9.75,1.16,9.41.27,10.05-.05,8.84-.53s1.27-6.12,1.58-8.18c.36-2.34.96-7.04,1.05-9.4.07-1.76.17-5.32-.16-7.06s-1.41-5.24-2.32-6.79c-.72-1.23-2.53-3.45-3.58-4.41-.93-.85-3.11-2.17-4.04-3.02-.45-.41-1.35-1.3-1.59-1.86-.41-.96-.55-3.11-.61-4.15-.11-1.99-.35-5.97-.42-7.96-.08-2.12-.09-6.36-.16-8.48-.03-.79-.19-3.16-.19-3.16l-15.36-.11Z"/><path class="cls-3" d="m55.92,53.05s-2.49-1.02-3.32-1.36c-1.18-.49-3.47-1.66-4.71-1.96-1.06-.26-3.26-.51-4.33-.35-.89.14-2.67.65-3.41,1.17-.92.64-2.54,2.28-3.03,3.29-.53,1.07-1.15,3.45-1.17,4.65s.27,3.56.66,4.68c.36,1.02,1.44,2.91,2.02,3.82.55.85,1.71,2.5,2.31,3.32.7.96,2.84,3.82,2.84,3.82l1.19-5.12s-2.44-2.89-3.11-3.96c-.52-.83-1.44-2.59-1.69-3.54-.23-.85-.46-2.63-.4-3.51.05-.74.16-2.3.57-2.91.47-.69,1.95-1.65,2.74-1.93.59-.21,1.84-.5,2.46-.43.8.09,2.32.7,3.03,1.08s2.15,1.2,2.79,1.7c.51.4,1.86,1.8,1.86,1.8l2.69-4.27Z"/><path class="cls-3" d="m57.54,28.84s3.78-.93,7.76-.93c3.11,0,7.64,1.07,7.64,1.07l.07,1.54-8.41.26-7.12-1.11.06-.83Z"/><path class="cls-2" d="m57.81,28.96c0-.32,5.31-.82,7.1-.81,1.95.02,7.73.74,7.73,1.02,0,.58-5.86.53-7.79.5-1.78-.03-7.04-.22-7.04-.7Z"/></g></svg>