<?xml version="1.0" encoding="UTF-8"?><svg xmlns="http://www.w3.org/2000/svg" viewBox="0 0 122 122"><defs><style>.cls-1{fill:#eae1da;}.cls-2{fill:#a08572;}.cls-3{fill:#bb9b84;}</style></defs><g id="Layer_4"><circle class="cls-1" cx="61" cy="61" r="61"/></g><g id="Layer_15"><path class="cls-3" d="m44.01,79.81s.73,1.54,1.08,1.97c.28.34.94.91,1.32,1.11,1.63.88,5.12,2.06,6.89,2.49,2.25.55,6.79,1.48,9.08,1.67,1.9.16,5.73.18,7.63,0,1.66-.16,4.97-.59,6.58-1.07,1.51-.45,4.47-1.64,5.85-2.46.92-.55,2.74-1.75,3.48-2.56s1.86-2.7,2.36-3.68c.46-.9,1.36-2.72,1.67-3.7.33-1.06.75-3.26.88-4.37.07-.6.19-1.82.18-2.43,0-.33-.03-1.01-.13-1.32-.19-.59-.82-1.65-1.2-2.12-.52-.65-1.69-1.82-2.29-2.38-.41-.38-1.24-1.15-1.68-1.49-.34-.27-1.06-.76-1.44-.97-.8-.43-2.47-1.12-3.3-1.48-.57-.25-1.69-.79-2.26-1.02s-1.79-.63-2.39-.84c-.75-.26-2.22-.87-2.98-1.08-.53-.15-1.6-.34-2.13-.45-.62-.13-1.85-.46-2.48-.55s-1.94-.15-2.58-.12c-.73.04-2.17.21-2.89.34-.8.14-2.4.49-3.2.68-.84.2-2.54.54-3.35.84-.88.33-3.37,1.68-3.37,1.68l-3.25,6.23-4.5,10.35-1.57,6.74Z"/><g id="Layer_16"><path class="cls-2" d="m87.78,62.16c-.78-.87-2.61-2.3-3.59-2.87-.91-.52-2.84-1.31-3.8-1.73-.75-.32-2.22-1.06-2.99-1.34-.95-.35-2.98-.76-3.95-1.03-.67-.18-1.95-.64-2.6-.84-.57-.17-1.72-.52-2.3-.61-.51-.08-1.54-.15-2.05-.11-.62.05-1.85.29-2.45.46-1.07.32-3.41.53-4.48.95-.85.33-2.82.89-3.69,1.37-1.04.56-3.84,2.86-3.84,2.86l-4.25,4.2-1.8,4.26-.31,4.28s-.32.43-.31.6c.02.22.41.52.59.62.34.19,1.14.21,1.52.28,1.19.23,3.57.69,4.76.89,1,.17,3.04.45,4.03.62,1.28.21,3.86.51,5.16.65,1.27.14,3.81.35,5.1.41,1.5.06,4.53,0,6.06-.12,1.04-.08,3.17-.56,4.22-.76s3.3-.68,4.35-1.03c.81-.27,2.41-.84,3.19-1.19.63-.28,1.84-.94,2.41-1.37.53-.4,1.49-1.36,1.89-1.92.35-.49.77-1.69.91-2.29s.13-1.86-.02-2.45c-.21-.82-1.21-2.19-1.75-2.8Z"/></g><path class="cls-3" d="m31.6,48.55s-.58.51-.58.76c0,2.27.29,6.16.45,8.2.15,1.84.42,5.53.61,7.37.26,2.61.7,7.85,1.22,10.41.11.55.36,1.65.62,2.14.29.54,1.03,1.53,1.49,1.88.7.53,2.29,1.25,3.11,1.49.62.18,1.89.45,2.54.5.99.07,2.97-.04,3.96-.08,2.26-.09,9.06-.29,9.06-.29,0,0,.48-8.96.63-11.95.1-2.11.28-6.33.38-8.44.07-1.39.21-4.16.23-5.55.02-1.46-.08-4.38-.08-5.84,0-.36-.08-1.61-.08-1.61l-23.55,1.01Z"/><g id="Layer_17"><path class="cls-3" d="m54.92,61.31l-.07,2.28s-.14,2.77-.19,3.67c-.04.71-.11,2.12-.13,2.82-.03.78-.07,2.33-.09,3.1-.01.41-.03,1.63-.03,1.63,0,0-4.9-.86-6.56-1.02-.5-.05-1.55-.16-2.01-.39-.15-.07-.39-.39-.4-.56s.38-.52.34-.7c-.07-.27-.74-.22-1-.22-.32,0-.99.34-1.24.56-.34.3-.78.99-.88,1.41-.17.66-.26,2.08-.1,2.75.18.74.95,2.05,1.29,2.73.2.41.73,1.66.73,1.66l-1.9.03-1.41-1.7-.23-4.32,1.7-4.94,4.61-4.6,3.67-2.19,3.91-1.97Z"/><path class="cls-2" d="m44.75,81.25l-.44-.26-.44-.45s-.44-.54-.6-.85c-.17-.32-.46-1.01-.57-1.37-.12-.38-.35-1.14-.41-1.53-.05-.32-.08-.96-.08-1.28,0-.38.03-1.14.12-1.5.07-.27.26-.81.41-1.04s.55-.65.78-.79c.16-.1.52-.26.71-.28.09-.01.36.02.36.02,0,0-.73.3-.94.47-.16.12-.42.42-.53.59s-.31.5-.38.69c-.08.22-.16.68-.19.91-.03.27-.07.81-.07,1.08,0,.24.04.74.08.97.06.33.25.97.35,1.28.08.26.25.79.35,1.05s.31.76.42,1c.07.14.51.68.61.79.13.13.45.51.45.51Z"/><path class="cls-2" d="m44.04,71.95s.37-.12.51-.15c.17-.04.53-.02.7,0,.15.01.46.05.59.14.07.05.12.18.13.26,0,.07-.06.22-.09.28-.04.06-.12.14-.16.18-.03.04-.12.13-.11.19,0,.09.12.25.19.3.11.08.35.19.47.23.18.05.54.12.73.15.25.04.75.1,1,.14.15.03,2.94.34,3.09.37.06.01,2.8.51,2.86.53.07.02.48.18.48.18,0,0-5.76-.85-5.91-.87-.18-.02-.54-.04-.72-.06-.27-.03-.81-.11-1.08-.16-.16-.03-.48-.1-.63-.15-.07-.02-.2-.07-.26-.12-.07-.05-.21-.18-.26-.26-.04-.06-.13-.2-.13-.28,0-.07.1-.18.14-.24.05-.07.15-.19.18-.27.02-.04.06-.14.05-.18,0-.04-.06-.1-.1-.12-.08-.04-.25-.06-.33-.06-.07,0-.22,0-.29,0-.08,0-.23-.02-.31-.02-.05,0-.14.01-.19.02-.04,0-.13.04-.17.05-.06.01-.26,0-.26,0l-.11-.05Z"/><g id="Layer_18"><path class="cls-3" d="m42.76,44.15c-.8.03-2.69.35-3.48.49-.66.12-2.21.59-2.86.78-.84.25-2.26.73-3.06,1.1-.45.21-1.3.8-1.63,1.21-.27.34-.78,1.16-.74,1.61s.65,1.08.96,1.35c.36.31,1.23.62,1.66.8.57.23,1.76.6,2.36.72.8.17,2.42.28,3.22.34.9.06,2.7.09,3.6.08s2.6-.12,3.47-.21c.8-.08,2.38-.35,3.16-.57.73-.21,2.14-.82,2.84-1.15.64-.3,1.92-1.02,2.38-1.59.27-.33.53-1.26.49-1.71-.05-.48-.67-1.28-1.03-1.55-.86-.65-3.01-.9-4.03-1.11s-2.99-.43-3.99-.52c-.83-.07-2.43-.11-3.33-.07Z"/><g id="Layer_19"><path class="cls-2" d="m43.83,44.88c-.56,0-1.69.18-2.25.24-.61.07-1.84.23-2.45.35-.54.1-1.63.38-2.16.48-.58.11-1.74.37-2.31.56-.5.16-1.49.47-1.96.79-.32.21-.94.39-.97,1.23-.03.98.76,1.43,1.21,1.62.51.22,1.66.62,2.19.75.89.22,2.69.47,3.6.5,1.34.05,4.03,0,5.37-.12,1.09-.1,3.26-.43,4.33-.68.85-.2,2.54-.72,3.35-1.05.64-.26,2.32-.85,2.65-1.5.15-.29,0-.78-.19-1.02-.43-.58-1.83-.94-2.48-1.1-.84-.2-2.53-.59-3.38-.73-.54-.09-1.63-.21-2.18-.26s-1.79-.07-2.37-.06Z"/><g id="Layer_20"><path class="cls-3" d="m52.47,45.75s.16-.38.36-1.15c.27-1.07.86-3.2,1.25-4.24.47-1.27,1.56-3.77,2.16-5,.46-.94,1.35-2.83,1.95-3.7s1.91-2.51,2.76-3.17c.95-.73,3.09-1.96,4.27-2.33,1.38-.43,4.29-.88,5.75-.92,1.58-.05,4.82-.17,6.3.31,1.39.44,3.88,2,4.85,2.99.78.79,2.16,2.57,2.53,3.58.68,1.84,1.1,5.74,1.11,7.68,0,1.72-.31,5.16-.45,6.87-.11,1.32-.26,3.96-.38,5.27-.09.95-.34,2.83-.44,3.78-.05.47-.14,1.42-.17,1.9-.02.31-.06,1.23-.06,1.23l-2.77-1.03s.41-2.84.5-3.71c.13-1.21.34-3.46.45-4.61s.34-3.4.42-4.54c.1-1.42.36-4.27.26-5.69-.09-1.29-.44-3.9-.92-5.12-.39-.98-1.4-2.91-2.2-3.68-.85-.82-2.91-2.23-4.1-2.56-1.04-.29-3.27-.33-4.36-.24-1.31.11-4.01.25-5.2.77-1.22.53-3.27,2.2-4.08,3.16-.71.85-1.83,2.74-2.35,3.7-.74,1.37-2.19,4.13-2.82,5.55-.61,1.36-1.17,2.45-1.45,3.31-.25.76-.72,3.13-.72,3.13l-2.45-1.52Z"/></g></g></g></g></g></svg>