<?xml version="1.0" encoding="UTF-8"?><svg id="Layer_39" xmlns="http://www.w3.org/2000/svg" viewBox="0 0 469.48 451.76"><path d="m155.14,69.01c0,32.5-28.08,56.68-65,56.68h-57.72v68.64H15.53V12.33h74.62c36.92,0,65,24.18,65,56.68Zm-17.94,0c0-30.94-19.76-51.48-49.92-51.48h-54.86v102.96h54.86c30.16,0,49.92-20.54,49.92-51.48Z"/><path d="m162.42,25.33c0-6.76,5.2-11.44,12.22-11.44,6.24,0,11.18,4.68,11.18,11.44s-4.94,11.7-11.18,11.7c-7.02,0-12.22-4.94-12.22-11.7Zm3.38,42.9l16.9-5.2v131.3h-16.9v-126.1Z"/><path d="m205.32,9.73l16.9-5.2v189.79h-16.9V9.73Z"/><path d="m234.7,129.32c0-38.48,29.12-67.6,67.86-67.6s67.6,29.12,67.6,67.6-29.12,67.6-67.6,67.6-67.86-29.12-67.86-67.6Zm117.52,0c0-37.7-19.76-62.4-49.66-62.4s-49.92,24.7-49.92,62.4,19.76,62.4,49.92,62.4,49.66-24.7,49.66-62.4Z"/><path d="m372.24,160.52h5.46c0,17.68,19.5,31.2,42.64,31.2,21.84,0,36.14-10.4,36.14-23.92,0-15.6-18.2-23.14-37.96-31.2-19.5-8.06-42.9-18.2-42.9-40.3,0-20.8,19.76-34.58,46.8-34.58,24.18,0,42.9,14.56,42.9,33.54h-5.46c0-16.12-15.86-28.34-36.66-28.34s-34.58,10.14-34.58,23.4c0,15.6,18.72,23.4,38.22,31.2,20.02,8.06,42.64,17.68,42.64,40.04,0,20.8-18.72,35.36-47.84,35.36-27.04,0-49.4-15.6-49.4-36.4Z"/><path d="m2.53,327.47c0-38.48,29.38-67.6,68.64-67.6,26.52,0,47.06,13.26,47.06,31.98h-5.46c0-15.34-16.64-26.78-39.26-26.78-32.5,0-53.04,24.7-53.04,62.4s20.8,62.4,52.26,62.4c18.2,0,34.32-8.06,41.34-20.28h5.72c-6.76,14.56-25.22,25.48-48.36,25.48-40.3,0-68.9-30.16-68.9-67.6Z"/><path d="m255.5,327.47c0,38.48-28.6,67.6-63.7,67.6-18.46,0-35.1-8.32-45.76-21.06v75.66h-16.9v-183.3l16.9-5.2v22.62c10.14-15.08,27.3-23.92,46.28-23.92,34.32,0,63.18,29.12,63.18,67.6Zm-17.94,0c0-37.18-19.5-61.62-47.58-61.62-17.94,0-34.06,10.4-43.94,27.56v69.68c8.84,15.86,24.7,26,43.16,26,28.86,0,48.36-24.18,48.36-61.62Z"/><path d="m383.16,304.59v87.88h-16.9v-92.3c0-18.72-14.3-32.76-34.84-32.76-18.72,0-38.22,11.96-46.54,29.64v95.42h-16.9v-184.6l16.9-5.2v86.06c8.84-16.9,28.86-28.86,50.44-28.86,27.82,0,47.84,19.24,47.84,44.72Z"/></svg>